<?xml version="1.0" encoding="utf-8"?>
<!-- Generator: Adobe Illustrator 25.3.1, SVG Export Plug-In . SVG Version: 6.00 Build 0)  -->
<svg version="1.1" id="图层_1" xmlns="http://www.w3.org/2000/svg" xmlns:xlink="http://www.w3.org/1999/xlink" x="0px" y="0px"
	 viewBox="0 0 32 32" style="enable-background:new 0 0 32 32;" xml:space="preserve">
<style type="text/css">
	.st0{fill:#344EC9;}
</style>
<path class="st0" d="M28.3,28.3L3.7,3.7L1.9,5.6l2.5,2.5c-1,0.4-1.7,1.4-1.7,2.5v10.7c0,1.5,1.2,2.7,2.7,2.7h14.9l6.1,6.1L28.3,28.3
	z M12,17.3V20H9.3v-2.7H6.7v-2.7h2.7v-1.6l4.2,4.2H12z M27.6,23.8c1-0.4,1.7-1.4,1.7-2.5V10.7c0-1.5-1.2-2.7-2.7-2.7H11.8
	C11.8,8,27.6,23.8,27.6,23.8z M23.3,12c1.1,0,2,0.9,2,2s-0.9,2-2,2s-2-0.9-2-2S22.2,12,23.3,12z"/>
</svg>
